<?xml version="1.0" encoding="utf-8"?>
<svg width="800px" height="800px" viewBox="0 0 256 256" xmlns="http://www.w3.org/2000/svg" preserveAspectRatio="xMinYMin meet">
  <!-- Background circle for the logo -->
  <circle cx="128" cy="128" r="120" fill="#336791"/>

  <!-- PostgreSQL Elephant Logo -->
  <path d="M110.74,104.45C109.58,106.29 105.77,116.04 100.51,116.97C94.65,117.98 90.36,109.85 88.97,108.1C84.34,101.99 80.8,94.83 80.35,87.1C79.88,78.81 80.94,72.07 84.35,65.2C87.3,59.09 91.8,53.57 97.14,49.83C100.24,47.61 103.68,46.07 107.34,45.35C107.71,47.33 108.38,50.84 108.42,51.64C108.42,51.87 107.47,52.08 107.25,52.19C105.3,53.2 103.34,54.21 101.47,55.31C96.74,58.2 92.96,62.17 90.44,67.32C87.28,73.61 86.95,80.97 90.05,87.89C92.73,93.91 97.49,98.24 103.05,100.92C105.18,101.99 107.48,102.79 109.86,103.28C110.11,103.34 110.34,103.83 110.55,104.45Z" fill="#FFFFFF"/>
  <path d="M115.14,91.97C114.87,92.28 110.25,97.5 110.77,101.37C110.94,102.54 112.11,103.21 113.25,103.32C115.06,103.5 116.82,102.68 118.25,101.6C120.38,100.03 122.14,98.1 123.38,95.86C124.69,93.5 125.51,90.84 126.48,88.28C128.03,84.22 129.33,80.1 130.9,76.06C132.2,72.96 134.13,70.11 136.45,67.91C139.23,65.34 142.7,64.19 146.21,64.6C148.59,64.86 150.93,65.53 153.2,66.37C155.37,67.16 157.58,67.82 159.74,68.63C161.56,69.3 162.96,70.58 163.74,72.21C164.62,73.99 164.47,75.96 164.4,77.86C164.29,80.52 164.02,83.16 163.77,85.82C163.49,88.6 163.23,91.39 162.92,94.16C162.48,98.17 162.02,102.18 161.45,106.16C161.1,108.55 160.59,110.92 160.07,113.3C159.7,114.93 159.12,116.54 157.97,117.83C155.81,120.35 152.03,120.88 148.95,121.14C143.77,121.6 138.52,121.51 133.32,121.95C129.62,122.27 125.91,122.58 122.24,122.19C119.84,121.93 117.56,121.05 115.92,119.18C114.53,117.65 113.75,115.54 113.16,113.66C112.68,112.21 112.43,110.69 112.17,109.19C111.9,107.73 111.59,106.28 111.16,104.86C110.75,103.53 110.24,102.21 109.86,100.86C109.29,98.84 108.93,96.74 108.96,94.62C108.97,92.97 109.37,91.34 109.96,89.83C110.37,88.67 111.04,87.65 111.94,86.87C113.1,85.88 114.51,85.28 115.99,85.17C116.91,85.08 117.84,85.21 118.75,85.42C119.72,85.63 120.63,86.05 121.41,86.65C122.37,87.42 123.02,88.51 123.42,89.67C123.8,90.75 123.89,91.92 123.71,93.03C123.48,94.58 122.82,96.06 121.76,97.17C120.94,98.1 119.84,98.75 118.64,99.07C117.92,99.27 117.17,99.23 116.47,98.97C115.84,98.74 115.28,98.3 114.87,97.72C114.44,97.12 114.18,96.4 114.18,95.66C114.18,95.08 114.35,94.53 114.67,94.1C115.17,93.43 116.02,93.16 116.84,93.33C117.55,93.46 118.18,93.88 118.53,94.47C118.86,95.02 118.96,95.7 118.82,96.32C118.72,96.76 118.46,97.13 118.12,97.36C117.89,97.51 117.61,97.59 117.33,97.57C116.99,97.54 116.67,97.36 116.48,97.07C116.34,96.83 116.29,96.53 116.34,96.25C116.42,95.88 116.77,95.68 117.08,95.71C117.21,95.72 117.34,95.79 117.4,95.9C117.43,95.96 117.43,96.02 117.42,96.08C117.4,96.23 117.29,96.35 117.16,96.37C117.07,96.39 116.99,96.35 116.94,96.29C116.91,96.25 116.91,96.2 116.93,96.16C116.95,96.09 117.01,96.04 117.07,96.04C117.12,96.04 117.17,96.08 117.17,96.12C117.17,96.13 117.15,96.16 117.13,96.16C117.12,96.16 117.1,96.16 117.08,96.14C117.07,96.12 117.06,96.1 117.06,96.08C117.06,96.05 117.09,96.04 117.11,96.04C117.13,96.04 117.14,96.04 117.16,96.06C117.18,96.07 117.18,96.08 117.18,96.1C117.18,96.12 117.17,96.14 117.16,96.14C117.15,96.14 117.13,96.12 117.12,96.11C117.11,96.1 117.11,96.09 117.11,96.08C117.11,96.05 117.14,96.05 117.15,96.07C117.16,96.08 117.16,96.1 117.15,96.11C117.14,96.13 117.13,96.13 117.13,96.12" fill="#336791"/>

  <!-- Signup Element -->
  <rect x="88" y="160" width="80" height="40" rx="10" ry="10" fill="#FFFFFF" stroke="#336791" stroke-width="2"/>
  <text x="100" y="185" font-family="Arial" font-size="20" fill="#336791" font-weight="bold">Sign Up</text>
</svg>
